<svg width="179" height="124" viewBox="0 0 179 124" fill="none" xmlns="http://www.w3.org/2000/svg">
<g filter="url(#filter0_dd_10_2)">
<g clip-path="url(#clip0_10_2)">
<path d="M163 10H16C12.6863 10 10 12.6863 10 16V108C10 111.314 12.6863 114 16 114H163C166.314 114 169 111.314 169 108V16C169 12.6863 166.314 10 163 10Z" fill="url(#paint0_linear_10_2)" stroke="white" stroke-width="6"/>
<path d="M50.4046 64.6182C50.4046 65.5654 50.0975 66.3232 49.4833 66.8915L35.3796 81.0285C34.6236 81.6915 33.844 82.023 33.0408 82.023H30.2768C29.6626 82.023 29.072 81.8336 28.505 81.4547C27.9853 81.0759 27.5837 80.6022 27.3002 80.0339C26.7805 78.7552 27.0167 77.5712 28.0089 76.4819L40.1281 64.263C40.6478 63.9315 40.6478 63.5052 40.1281 62.9843L28.0089 50.8365C26.9694 49.8893 26.7332 48.7053 27.3002 47.2845C27.5364 46.6688 27.938 46.1715 28.505 45.7926C29.072 45.4138 29.6626 45.2243 30.2768 45.2243H33.0408C33.844 45.2243 34.6236 45.5559 35.3796 46.2189L49.4833 60.3558C50.0975 60.9716 50.4046 61.7292 50.4046 62.6291V64.6182ZM93.7171 78.7552C93.7171 79.6551 93.41 80.4365 92.7958 81.0995C92.1815 81.7152 91.4019 82.023 90.457 82.023H88.5434C87.6457 82.023 86.8661 81.7152 86.2046 81.0995C85.5904 80.4365 85.2833 79.6551 85.2833 78.7552V57.3722C85.2833 57.1827 85.1888 57.0644 84.9998 57.017C84.858 56.9696 84.7399 57.017 84.6454 57.159L77.8417 71.225C77.6999 71.6038 77.3928 71.9354 76.9203 72.2195C76.4478 72.5037 75.999 72.7404 75.5737 72.9299C75.1958 73.072 75.0068 73.143 75.0068 73.143C73.542 73.143 72.5735 72.5037 72.101 71.225L65.2972 57.159C65.25 57.017 65.1319 56.9696 64.9429 57.017C64.7538 57.0644 64.6594 57.1827 64.6594 57.3722V78.7552C64.6594 79.6551 64.3286 80.4365 63.6672 81.0995C63.0529 81.7152 62.297 82.023 61.3993 82.023H59.4148C58.5171 82.023 57.7375 81.7152 57.076 81.0995C56.4618 80.4365 56.1547 79.6551 56.1547 78.7552V37.2678C56.1547 36.3207 56.4618 35.5392 57.076 34.9235C57.7375 34.3078 58.5171 34 59.4148 34H61.4701C62.7931 34 63.7616 34.6157 64.3759 35.847C64.6121 36.368 65.0846 37.3863 65.7933 38.9018C66.5494 40.37 67.4234 42.1222 68.4156 44.1587C69.4078 46.1952 70.4236 48.3501 71.4631 50.6234C72.5498 52.8492 73.5893 54.9804 74.5815 57.017C74.676 57.2064 74.7941 57.3011 74.9359 57.3011C75.1249 57.3011 75.2667 57.2064 75.3611 57.017L85.4959 35.847C86.1102 34.6157 87.1024 34 88.4725 34H90.457C91.4019 34 92.1815 34.3078 92.7958 34.9235C93.41 35.5392 93.7171 36.3207 93.7171 37.2678V78.7552ZM125.137 74.0666C125.137 76.2924 124.358 78.1869 122.799 79.7498C121.286 81.2652 119.443 82.023 117.271 82.023H107.419C105.245 82.023 103.379 81.2652 101.82 79.7498C100.261 78.1869 99.481 76.2924 99.481 74.0666V53.1808C99.481 51.7126 99.8354 50.3866 100.544 49.2026C101.3 47.9712 102.269 47.0003 103.45 46.2899C104.631 45.5795 105.954 45.2243 107.419 45.2243H117.271C118.735 45.2243 120.058 45.5795 121.239 46.2899C122.42 47.0003 123.366 47.9712 124.074 49.2026C124.783 50.3866 125.137 51.7126 125.137 53.1808V74.0666ZM116.774 72.7168V54.6726C116.774 54.3885 116.656 54.1517 116.42 53.9622C116.231 53.7728 116.018 53.6781 115.782 53.6781H108.907C108.671 53.6781 108.435 53.7728 108.198 53.9622C108.009 54.1517 107.915 54.3885 107.915 54.6726V72.7168C107.915 72.9536 108.009 73.1667 108.198 73.3562C108.435 73.5456 108.671 73.6403 108.907 73.6403H115.782C116.018 73.6403 116.231 73.5456 116.42 73.3562C116.656 73.1667 116.774 72.9536 116.774 72.7168ZM141.534 76.695C141.534 78.1632 140.991 79.4182 139.904 80.4602C138.865 81.5021 137.612 82.023 136.148 82.023C134.731 82.023 133.478 81.5021 132.392 80.4602C131.352 79.4182 130.833 78.1632 130.833 76.695C130.833 75.2268 131.352 73.9719 132.392 72.9299C133.478 71.888 134.731 71.367 136.148 71.367C137.612 71.367 138.865 71.888 139.904 72.9299C140.991 73.9719 141.534 75.2268 141.534 76.695Z" fill="white"/>
<path d="M127.739 90.3481H151.638" stroke="white" stroke-width="5" stroke-linecap="round"/>
</g>
</g>
<defs>
<filter id="filter0_dd_10_2" x="-1" y="-2" width="180" height="126" filterUnits="userSpaceOnUse" color-interpolation-filters="sRGB">
<feFlood flood-opacity="0" result="BackgroundImageFix"/>
<feColorMatrix in="SourceAlpha" type="matrix" values="0 0 0 0 0 0 0 0 0 0 0 0 0 0 0 0 0 0 127 0" result="hardAlpha"/>
<feOffset dx="-1" dy="-1"/>
<feGaussianBlur stdDeviation="3"/>
<feComposite in2="hardAlpha" operator="out"/>
<feColorMatrix type="matrix" values="0 0 0 0 0 0 0 0 0 0 0 0 0 0 0 0 0 0 0.25 0"/>
<feBlend mode="normal" in2="BackgroundImageFix" result="effect1_dropShadow_10_2"/>
<feColorMatrix in="SourceAlpha" type="matrix" values="0 0 0 0 0 0 0 0 0 0 0 0 0 0 0 0 0 0 127 0" result="hardAlpha"/>
<feOffset dx="4" dy="4"/>
<feGaussianBlur stdDeviation="2"/>
<feComposite in2="hardAlpha" operator="out"/>
<feColorMatrix type="matrix" values="0 0 0 0 0 0 0 0 0 0 0 0 0 0 0 0 0 0 0.25 0"/>
<feBlend mode="normal" in2="effect1_dropShadow_10_2" result="effect2_dropShadow_10_2"/>
<feBlend mode="normal" in="SourceGraphic" in2="effect2_dropShadow_10_2" result="shape"/>
</filter>
<linearGradient id="paint0_linear_10_2" x1="169" y1="62" x2="10" y2="62" gradientUnits="userSpaceOnUse">
<stop stop-color="#222222"/>
<stop offset="0.468" stop-color="#111111"/>
<stop offset="1"/>
</linearGradient>
<clipPath id="clip0_10_2">
<rect x="6" y="5" width="165" height="111" rx="2" fill="white"/>
</clipPath>
</defs>
</svg>
