<svg width="91" height="91" viewBox="0 0 91 91" fill="none" xmlns="http://www.w3.org/2000/svg">
<g clip-path="url(#clip0_55_61)">
<path d="M27.2875 40.9349L19.2762 52.2928L31.8931 58.1233C32.3103 58.312 32.686 58.5814 32.9985 58.9159C33.3111 59.2505 33.5543 59.6437 33.7142 60.0727C33.874 60.5017 33.9474 60.9582 33.93 61.4157C33.9126 61.8732 33.8047 62.3228 33.6127 62.7384C33.4207 63.1541 33.1484 63.5276 32.8113 63.8375C32.4742 64.1474 32.0791 64.3874 31.6488 64.5439C31.2185 64.7003 30.7615 64.77 30.3041 64.7489C29.8468 64.7279 29.3981 64.6165 28.984 64.4211L12.5892 56.8437C12.1275 56.6304 11.7183 56.3182 11.3907 55.9292C11.0631 55.5401 10.825 55.0838 10.6934 54.5925C10.5617 54.1013 10.5397 53.5871 10.6289 53.0863C10.7181 52.5856 10.9164 52.1106 11.2096 51.695L21.6192 36.9354C22.1528 36.1919 22.9586 35.6894 23.861 35.5373C24.7635 35.3852 25.6894 35.596 26.4372 36.1236C27.185 36.6512 27.6939 37.453 27.8532 38.3542C28.0125 39.2554 27.8091 40.183 27.2875 40.9349ZM78.042 33.7874L61.6472 26.21C61.2331 26.0146 60.7844 25.9032 60.327 25.8822C59.8697 25.8611 59.4126 25.9308 58.9823 26.0872C58.552 26.2437 58.157 26.4837 57.8199 26.7936C57.4828 27.1035 57.2104 27.477 57.0184 27.8926C56.8264 28.3083 56.7186 28.7578 56.7012 29.2154C56.6838 29.6729 56.7571 30.1293 56.917 30.5584C57.0769 30.9874 57.3201 31.3806 57.6326 31.7152C57.9452 32.0497 58.3209 32.3191 58.7381 32.5078L71.355 38.3383L63.3437 49.6961C63.0767 50.0681 62.886 50.4893 62.7827 50.9353C62.6793 51.3813 62.6652 51.8434 62.7413 52.2949C62.8174 52.7464 62.9821 53.1784 63.2259 53.5659C63.4697 53.9534 63.7879 54.2888 64.162 54.5528C64.5361 54.8168 64.9588 55.0041 65.4056 55.1039C65.8524 55.2037 66.3146 55.2141 66.7655 55.1344C67.2164 55.0547 67.647 54.8865 68.0326 54.6396C68.4181 54.3927 68.751 54.0719 69.012 53.6957L79.4216 38.936C79.7148 38.5205 79.913 38.0455 80.0022 37.5448C80.0915 37.044 80.0695 36.5298 79.9378 36.0385C79.8062 35.5473 79.5681 35.0909 79.2405 34.7019C78.9129 34.3129 78.5037 34.0007 78.042 33.7874ZM47.9676 14.8945C47.5137 14.8549 47.0564 14.9051 46.6219 15.0423C46.1874 15.1794 45.7842 15.4008 45.4353 15.6939C45.0864 15.9869 44.7987 16.3458 44.5885 16.75C44.3783 17.1543 44.2499 17.596 44.2104 18.0499L39.5082 71.9795C39.429 72.8956 39.7169 73.8057 40.3084 74.5097C40.8999 75.2137 41.7468 75.654 42.6629 75.7338C43.0656 75.7709 43.4717 75.736 43.8623 75.6309C44.5502 75.4467 45.1648 75.0552 45.6225 74.5096C46.0802 73.964 46.3589 73.2907 46.4207 72.5812L51.123 18.6516C51.1625 18.1977 51.1123 17.7404 50.9752 17.306C50.838 16.8715 50.6166 16.4683 50.3236 16.1194C50.0305 15.7705 49.6717 15.4827 49.2674 15.2725C48.8632 15.0624 48.4215 14.9339 47.9676 14.8945Z" fill="#444444"/>
</g>
<defs>
<clipPath id="clip0_55_61">
<rect width="74" height="74" fill="white" transform="translate(0 19.1526) rotate(-15)"/>
</clipPath>
</defs>
</svg>
