<svg width="75" height="75" viewBox="0 0 75 75" fill="none" xmlns="http://www.w3.org/2000/svg">
<g clip-path="url(#clip0_84_35)">
<path d="M73.091 34.2059L40.7959 1.91252C38.9373 0.0527588 35.9209 0.0527588 34.0594 1.91252L27.3545 8.61917L35.8611 17.1258C37.8387 16.4584 40.1051 16.9061 41.6807 18.4817C42.4315 19.2332 42.9557 20.1809 43.1933 21.2163C43.4309 22.2518 43.3723 23.3332 43.0242 24.3369L51.2226 32.5365C53.206 31.8528 55.4953 32.2946 57.0785 33.8813C59.2933 36.0944 59.2933 39.6821 57.0785 41.8963C56.5522 42.4229 55.9272 42.8406 55.2394 43.1256C54.5516 43.4106 53.8143 43.5573 53.0698 43.5573C52.3253 43.5573 51.588 43.4106 50.9002 43.1256C50.2124 42.8406 49.5875 42.4229 49.0611 41.8963C48.2705 41.1049 47.7316 40.0974 47.5122 39.0005C47.2927 37.9036 47.4025 36.7663 47.8277 35.7317L40.1824 28.0858L40.1812 48.2074C40.736 48.4805 41.2424 48.8423 41.6807 49.2785C43.8949 51.4916 43.8949 55.0782 41.6807 57.2959C39.4664 59.509 35.8775 59.509 33.6656 57.2959C31.4519 55.0787 31.2703 51.4922 33.4834 49.2785C34.0307 48.7319 34.5703 48.3188 35.1562 48.0422V27.7342C34.5703 27.4576 34.0312 27.0475 33.4828 26.4973C31.8064 24.8215 31.493 22.3606 32.3531 20.3004L24.0135 11.9139L1.89198 34.0565C0.03163 35.918 0.0433488 38.9344 1.9037 40.7948L34.2041 73.0881C36.0633 74.9479 39.082 74.9479 40.9441 73.0881L73.0887 40.9448C74.949 39.0838 74.9508 36.0656 73.091 34.2059Z" fill="#444444"/>
</g>
<defs>
<clipPath id="clip0_84_35">
<rect width="75" height="75" fill="white"/>
</clipPath>
</defs>
</svg>
