<svg width="101" height="72" viewBox="0 0 101 72" fill="none" xmlns="http://www.w3.org/2000/svg">
<g filter="url(#filter0_dd_55_88)">
<g clip-path="url(#clip0_55_88)">
<path d="M85.7698 9.56763H14.897C11.5833 9.56763 8.89703 12.2539 8.89703 15.5676V56.973C8.89703 60.2867 11.5833 62.973 14.897 62.973H85.7698C89.0835 62.973 91.7698 60.2867 91.7698 56.973V15.5676C91.7698 12.2539 89.0835 9.56763 85.7698 9.56763Z" fill="url(#paint0_linear_55_88)" stroke="#17D885" stroke-width="4"/>
<path d="M30.1442 37.6147C30.1442 38.1011 29.9841 38.4902 29.664 38.7821L22.313 46.0416C21.919 46.3821 21.5126 46.5523 21.094 46.5523H19.6534C19.3332 46.5523 19.0254 46.455 18.7299 46.2605C18.459 46.0659 18.2496 45.8227 18.1019 45.5309C17.831 44.8742 17.9541 44.2662 18.4713 43.7069L24.788 37.4323C25.0588 37.2621 25.0588 37.0432 24.788 36.7757L18.4713 30.5376C17.9295 30.0512 17.8064 29.4432 18.1019 28.7136C18.225 28.3974 18.4343 28.1421 18.7299 27.9475C19.0254 27.753 19.3332 27.6557 19.6534 27.6557H21.094C21.5126 27.6557 21.919 27.8259 22.313 28.1664L29.664 35.4259C29.9841 35.7421 30.1442 36.1312 30.1442 36.5933V37.6147ZM52.7192 44.8742C52.7192 45.3363 52.5591 45.7376 52.239 46.0781C51.9188 46.3943 51.5125 46.5523 51.02 46.5523H50.0226C49.5547 46.5523 49.1483 46.3943 48.8036 46.0781C48.4834 45.7376 48.3234 45.3363 48.3234 44.8742V33.8938C48.3234 33.7965 48.2742 33.7357 48.1756 33.7114C48.1017 33.687 48.0402 33.7114 47.9909 33.7843L44.4447 41.0074C44.3708 41.2019 44.2108 41.3722 43.9645 41.5181C43.7182 41.664 43.4843 41.7856 43.2627 41.8829C43.0657 41.9558 42.9671 41.9923 42.9671 41.9923C42.2037 41.9923 41.6989 41.664 41.4526 41.0074L37.9064 33.7843C37.8818 33.7114 37.8202 33.687 37.7217 33.7114C37.6232 33.7357 37.574 33.7965 37.574 33.8938V44.8742C37.574 45.3363 37.4016 45.7376 37.0568 46.0781C36.7366 46.3943 36.3427 46.5523 35.8747 46.5523H34.8404C34.3725 46.5523 33.9662 46.3943 33.6214 46.0781C33.3013 45.7376 33.1412 45.3363 33.1412 44.8742V23.5699C33.1412 23.0835 33.3013 22.6823 33.6214 22.3661C33.9662 22.0499 34.3725 21.8918 34.8404 21.8918H35.9117C36.6012 21.8918 37.106 22.208 37.4262 22.8403C37.5493 23.1078 37.7956 23.6307 38.165 24.409C38.559 25.1629 39.0146 26.0627 39.5318 27.1085C40.0489 28.1543 40.5784 29.2608 41.1202 30.4282C41.6866 31.5712 42.2284 32.6656 42.7455 33.7114C42.7947 33.8087 42.8563 33.8573 42.9302 33.8573C43.0287 33.8573 43.1026 33.8087 43.1518 33.7114L48.4342 22.8403C48.7544 22.208 49.2715 21.8918 49.9857 21.8918H51.02C51.5125 21.8918 51.9188 22.0499 52.239 22.3661C52.5591 22.6823 52.7192 23.0835 52.7192 23.5699V44.8742ZM69.0959 42.4666C69.0959 43.6096 68.6895 44.5824 67.8768 45.385C67.0884 46.1632 66.128 46.5523 64.9956 46.5523H59.8607C58.7278 46.5523 57.7551 46.1632 56.9424 45.385C56.1298 44.5824 55.7234 43.6096 55.7234 42.4666V31.7414C55.7234 30.9875 55.9081 30.3066 56.2775 29.6986C56.6716 29.0663 57.1764 28.5677 57.792 28.2029C58.4077 27.8381 59.0972 27.6557 59.8607 27.6557H64.9956C65.7586 27.6557 66.4483 27.8381 67.0642 28.2029C67.6795 28.5677 68.1724 29.0663 68.5418 29.6986C68.9112 30.3066 69.0959 30.9875 69.0959 31.7414V42.4666ZM64.737 41.7734V32.5075C64.737 32.3616 64.6752 32.24 64.5523 32.1427C64.4536 32.0454 64.3428 31.9968 64.2198 31.9968H60.6364C60.5133 31.9968 60.3901 32.0454 60.267 32.1427C60.1685 32.24 60.1192 32.3616 60.1192 32.5075V41.7734C60.1192 41.895 60.1685 42.0045 60.267 42.1018C60.3901 42.1991 60.5133 42.2477 60.6364 42.2477H64.2198C64.3428 42.2477 64.4536 42.1991 64.5523 42.1018C64.6752 42.0045 64.737 41.895 64.737 41.7734ZM77.6422 43.8163C77.6422 44.5703 77.3588 45.2147 76.7926 45.7498C76.2506 46.2848 75.5978 46.5523 74.8348 46.5523C74.096 46.5523 73.4432 46.2848 72.877 45.7498C72.335 45.2147 72.0643 44.5703 72.0643 43.8163C72.0643 43.0624 72.335 42.4179 72.877 41.8829C73.4432 41.3478 74.096 41.0803 74.8348 41.0803C75.5978 41.0803 76.2506 41.3478 76.7926 41.8829C77.3588 42.4179 77.6422 43.0624 77.6422 43.8163Z" fill="white"/>
<path d="M72.0898 50.8273H84.5465" stroke="white" stroke-width="3" stroke-linecap="round"/>
</g>
</g>
<defs>
<filter id="filter0_dd_55_88" x="0" y="0" width="101" height="72" filterUnits="userSpaceOnUse" color-interpolation-filters="sRGB">
<feFlood flood-opacity="0" result="BackgroundImageFix"/>
<feColorMatrix in="SourceAlpha" type="matrix" values="0 0 0 0 0 0 0 0 0 0 0 0 0 0 0 0 0 0 127 0" result="hardAlpha"/>
<feOffset dx="-1" dy="-1"/>
<feGaussianBlur stdDeviation="3"/>
<feComposite in2="hardAlpha" operator="out"/>
<feColorMatrix type="matrix" values="0 0 0 0 0 0 0 0 0 0 0 0 0 0 0 0 0 0 0.25 0"/>
<feBlend mode="normal" in2="BackgroundImageFix" result="effect1_dropShadow_55_88"/>
<feColorMatrix in="SourceAlpha" type="matrix" values="0 0 0 0 0 0 0 0 0 0 0 0 0 0 0 0 0 0 127 0" result="hardAlpha"/>
<feOffset dx="4" dy="4"/>
<feGaussianBlur stdDeviation="2"/>
<feComposite in2="hardAlpha" operator="out"/>
<feColorMatrix type="matrix" values="0 0 0 0 0 0 0 0 0 0 0 0 0 0 0 0 0 0 0.25 0"/>
<feBlend mode="normal" in2="effect1_dropShadow_55_88" result="effect2_dropShadow_55_88"/>
<feBlend mode="normal" in="SourceGraphic" in2="effect2_dropShadow_55_88" result="shape"/>
</filter>
<linearGradient id="paint0_linear_55_88" x1="91.7698" y1="36.2703" x2="8.89703" y2="36.2703" gradientUnits="userSpaceOnUse">
<stop stop-color="#222222"/>
<stop offset="0.468" stop-color="#111111"/>
<stop offset="1"/>
</linearGradient>
<clipPath id="clip0_55_88">
<rect x="7" y="7" width="86" height="57" rx="2" fill="white"/>
</clipPath>
</defs>
</svg>
