<svg width="82" height="82" viewBox="0 0 82 82" fill="none" xmlns="http://www.w3.org/2000/svg">
<g clip-path="url(#clip0_55_72)">
<path fill-rule="evenodd" clip-rule="evenodd" d="M70.0596 42.5871L55.1314 16.4522L25.0338 16.5915L11.888 39.3607L14.1985 43.4054L22.9867 44.6371C24.1696 44.8024 25.3749 44.6108 26.4482 44.0869C27.5216 43.563 28.4141 42.7307 29.0115 41.6965L39.3138 23.8524L42.7773 25.8521L32.4751 43.6961C31.4793 45.4202 29.9915 46.8078 28.2022 47.6811C26.4129 48.5543 24.4036 48.8735 22.4318 48.5976L16.7069 47.7953L26.8162 65.4956L56.9118 65.3598L70.0596 42.5871ZM42.2415 34.7788C43.3022 32.9416 45.0493 31.601 47.0984 31.052C49.1474 30.5029 51.3307 30.7904 53.1679 31.8511L57.2098 34.1847C60.7149 36.2083 61.9187 40.6901 59.8931 44.1987L59.5591 44.7771L56.0956 42.7774L56.4295 42.199C56.6483 41.8201 56.7903 41.4019 56.8474 40.9681C56.9045 40.5344 56.8756 40.0936 56.7624 39.6711C56.6491 39.2485 56.4538 38.8523 56.1874 38.5052C55.9211 38.1582 55.589 37.8669 55.2102 37.6482L51.1682 35.3146C50.2496 34.7842 49.158 34.6405 48.1335 34.915C47.1089 35.1896 46.2354 35.8599 45.705 36.7784C45.1747 37.697 45.031 38.7887 45.3055 39.8132C45.58 40.8377 46.2503 41.7113 47.1689 42.2416L50.6324 44.2413C52.4696 45.302 53.8101 47.049 54.3592 49.0981C54.9082 51.1472 54.6208 53.3305 53.5601 55.1677C52.4994 57.0048 50.7524 58.3454 48.7033 58.8944C46.6542 59.4435 44.4709 59.1561 42.6338 58.0954L39.1702 56.0957C37.3331 55.035 35.9925 53.288 35.4435 51.2389C34.8944 49.1898 35.1818 47.0065 36.2425 45.1693L39.706 47.169C39.1757 48.0876 39.032 49.1792 39.3065 50.2038C39.581 51.2283 40.2513 52.1018 41.1699 52.6322L44.6334 54.6318C45.552 55.1622 46.6436 55.3059 47.6682 55.0314C48.6927 54.7568 49.5663 54.0866 50.0966 53.168C50.627 52.2494 50.7707 51.1578 50.4961 50.1332C50.2216 49.1087 49.5513 48.2351 48.6328 47.7048L45.1692 45.7051C43.3321 44.6445 41.9915 42.8974 41.4425 40.8483C40.8934 38.7992 41.1808 36.6159 42.2415 34.7788Z" fill="#444444"/>
</g>
<defs>
<clipPath id="clip0_55_72">
<rect width="59.9899" height="59.9899" fill="white" transform="translate(29.9949) rotate(30)"/>
</clipPath>
</defs>
</svg>
