<svg width="104" height="104" viewBox="0 0 104 104" fill="none" xmlns="http://www.w3.org/2000/svg">
<g clip-path="url(#clip0_55_68)">
<path d="M48.4125 56.144C51.3669 58.2832 55.4961 57.6224 57.6353 54.6681C59.7746 51.7137 59.1138 47.5845 56.1594 45.4452C53.205 43.306 49.0758 43.9668 46.9366 46.9211C44.7973 49.8755 45.4581 54.0047 48.4125 56.144Z" fill="#444444"/>
<path d="M59.2354 41.1973C66.1481 46.2027 72.0085 51.9308 75.7566 57.2639C79.9191 63.1864 81.2596 68.4587 79.6846 70.634C78.0082 72.949 72.1774 73.3102 64.8229 70.9809C58.9709 69.1264 52.0341 65.4054 45.2588 60.4994C38.1413 55.3456 32.3563 49.8815 28.8467 44.9077C26.6482 41.793 25.176 38.7475 24.5438 36.135C23.9801 33.7854 24.1459 31.9792 24.8874 30.9553C26.4678 28.7726 31.7339 28.345 38.5314 30.3815C44.7866 32.2576 52.2353 36.1285 59.2354 41.1973ZM61.0908 38.635C53.8184 33.3691 46.0549 29.3388 39.436 27.3554C31.4923 24.9723 24.9316 25.5056 22.3276 29.1018C19.6404 32.8129 21.2902 39.6873 26.2635 46.7297C30.0011 52.0247 36.0255 57.7156 43.4052 63.0592C50.4378 68.1515 57.6621 72.0274 63.8701 73.9949C72.387 76.6902 79.521 76.2485 82.2444 72.4875C84.8574 68.8788 83.2006 62.361 78.3448 55.4455C74.3825 49.8088 68.2732 43.8357 61.0908 38.635ZM47.3769 39.9728C55.169 36.4826 63.0571 34.2686 69.5547 33.6859C76.7599 33.0407 81.9986 34.512 83.0932 36.9643C84.2613 39.5727 81.665 44.8038 75.9716 50.0116C71.4414 54.1545 64.7526 58.3028 57.1173 61.7238C49.0962 65.3147 41.4751 67.5964 35.4099 68.1496C31.6154 68.5007 28.2419 68.2545 25.6629 67.4948C23.3497 66.8096 21.8642 65.7644 21.3484 64.6105C20.2463 62.1527 22.5067 57.3751 27.6649 52.5068C32.4145 48.0241 39.4917 43.5023 47.3787 39.9703M46.0869 37.0859C37.8926 40.7531 30.5213 45.4655 25.4973 50.2063C19.4666 55.9009 16.6474 61.8499 18.4632 65.898C20.3369 70.087 27.1153 72.0868 35.6996 71.2982C42.1539 70.707 50.0954 68.3299 58.4091 64.6083C66.3327 61.0572 73.3011 56.7383 78.1039 52.3398C84.6951 46.3127 87.8768 39.9104 85.9776 35.6725C84.1566 31.6054 77.6871 29.7835 69.2675 30.5391C62.4109 31.155 54.1802 33.4635 46.0869 37.0859ZM40.3952 49.6306C41.2605 41.1437 43.284 33.2024 46.0205 27.2886C49.0625 20.7166 52.9521 16.9169 55.6235 17.1915C58.4673 17.4806 61.7012 22.3461 63.3701 29.8777C64.7005 35.8736 64.9522 43.7379 64.0983 52.0618C63.2059 60.8069 61.3751 68.5452 58.8313 74.077C57.2372 77.5403 55.3384 80.3414 53.3915 82.1941C51.642 83.8585 49.9957 84.6232 48.7367 84.4956C46.0584 84.2199 43.0491 79.8748 41.408 72.9725C39.8953 66.6237 39.5108 58.2331 40.3915 49.6356M37.2469 49.3152C36.3335 58.247 36.7319 66.9865 38.3347 73.705C40.2532 81.7751 44.0001 87.1834 48.4156 87.636C52.9769 88.1028 58.0968 83.2296 61.7011 75.3974C64.4091 69.5125 66.3176 61.446 67.243 52.3821C68.1286 43.7463 67.8634 35.5485 66.4553 29.1918C64.5234 20.4725 60.5675 14.517 55.9457 14.0444C51.5147 13.5921 46.7046 18.2898 43.1538 25.9589C40.2594 32.2114 38.151 40.491 37.2487 49.3127" fill="#444444"/>
</g>
<defs>
<clipPath id="clip0_55_68">
<rect width="74" height="74" fill="white" transform="translate(43.4001) rotate(35.9083)"/>
</clipPath>
</defs>
</svg>
